<svg width="109" height="22" viewBox="0 0 109 22" fill="none" xmlns="http://www.w3.org/2000/svg">
<g clip-path="url(#clip0_5_758)">
<path d="M83.3596 9.69794C84.0131 5.06556 88.2102 2.56335 94.6995 2.56335C101.189 2.56335 105.386 5.06556 106.039 9.69794H109.005C108.351 3.59787 103.033 0 94.7045 0C86.3756 0 81.0575 3.59787 80.4041 9.69794H83.3697H83.3596Z" fill="white"/>
<path d="M106.034 12.302C105.381 16.9344 101.179 19.4417 94.6945 19.4417C88.2103 19.4417 84.0081 16.9395 83.3547 12.302H80.394C81.0475 18.4021 86.3655 21.9999 94.6945 21.9999C103.023 21.9999 108.341 18.4021 108.995 12.302H106.034Z" fill="white"/>
<path d="M18.0603 12.404V0.366943H15.3761V11.6855C15.3761 14.259 14.8232 16.1802 13.7123 17.4492C12.6015 18.7181 10.8221 19.35 8.38423 19.35C6.22785 19.35 4.48868 18.7589 3.16168 17.5817C2.81485 17.2708 2.51326 16.9345 2.25691 16.5777L0 18.1168C0.326724 18.5805 0.703712 19.0188 1.14102 19.4214C2.92041 21.0878 5.308 21.9236 8.30883 21.9236C11.5409 21.9236 13.9737 21.1031 15.6073 19.4672C17.241 17.8314 18.0603 15.477 18.0603 12.404Z" fill="white"/>
<path d="M34.6679 19.4009C28.3546 19.0595 24.5093 16.1292 24.5093 10.9974C24.5093 5.86559 28.3546 2.94041 34.6679 2.59387V0.0305176C26.5249 0.412727 21.5789 4.44886 21.5789 10.9974C21.5789 17.5459 26.5199 21.5821 34.6679 21.9643V19.4009Z" fill="white"/>
<path d="M37.2363 0.0305176V2.59897C43.5496 2.94041 47.3949 5.87068 47.3949 11.0025C47.3949 16.1343 43.5496 19.0595 37.2363 19.406V21.9694C45.3793 21.5872 50.3254 17.551 50.3254 11.0025C50.3254 4.45396 45.3793 0.412727 37.2363 0.0305176Z" fill="white"/>
<path d="M56.4579 9.71328V2.91504H68.6472C71.3112 2.91504 74.8851 2.87937 74.8851 6.31416C74.8851 9.04569 72.2713 9.71328 68.6472 9.71328H56.4579ZM77.4386 21.6331L69.4162 12.2715L70.4768 12.1696C74.6137 11.6804 77.4335 10.3095 77.4335 6.31926C77.4335 1.80918 74.4226 0.37207 68.8382 0.37207H53.7637V21.6331H56.4931V12.2664H65.953L73.92 21.6331H77.4436H77.4386Z" fill="white"/>
</g>
<defs>
<clipPath id="clip0_5_758">
<rect width="109" height="22" fill="white"/>
</clipPath>
</defs>
</svg>
